<?xml version="1.0" encoding="UTF-8" ?>
<!DOCTYPE svg PUBLIC "-//W3C//DTD SVG 1.1//EN" "http://www.w3.org/Graphics/SVG/1.1/DTD/svg11.dtd">
<svg width="304pt" height="75pt" viewBox="0 0 304 75" version="1.1" xmlns="http://www.w3.org/2000/svg">
<path fill="#ffffff" d=" M 0.00 0.00 L 304.00 0.00 L 304.00 75.00 L 0.00 75.00 L 0.00 0.00 Z" />
<path fill="#356457" d=" M 109.61 8.49 C 109.87 8.29 110.37 7.88 110.63 7.67 C 119.23 7.55 127.85 7.75 136.45 7.58 C 139.94 15.95 142.89 24.57 146.12 33.07 C 142.05 30.86 136.99 29.62 132.59 31.59 C 131.13 33.07 131.59 35.49 131.29 37.40 C 129.41 32.57 127.43 27.74 126.07 22.74 C 125.69 22.55 124.93 22.19 124.55 22.01 C 124.84 28.17 125.48 34.30 125.18 40.48 C 123.42 37.51 123.51 31.89 119.09 31.74 C 117.21 31.54 115.24 31.64 113.49 32.42 C 112.11 34.02 111.57 36.12 110.61 37.97 L 109.67 37.53 C 109.64 27.85 109.84 18.17 109.61 8.49 Z" />
<path fill="#3a695c" d=" M 153.43 7.64 C 158.74 7.63 164.06 7.62 169.37 7.64 C 169.29 14.92 169.54 22.20 169.28 29.48 C 168.31 26.74 167.89 23.84 166.87 21.13 C 164.93 18.15 160.51 18.85 157.51 19.47 C 155.48 21.60 154.76 24.60 153.85 27.31 C 153.62 20.76 153.63 14.20 153.43 7.64 Z" />
<path fill="#376659" d=" M 201.21 7.65 C 209.54 7.63 217.86 7.63 226.19 7.65 C 226.53 13.29 229.20 18.45 230.54 23.88 C 226.96 22.40 222.66 20.87 218.94 22.67 C 218.36 23.89 218.02 25.21 217.63 26.51 C 216.06 25.41 217.30 22.68 215.55 21.95 C 215.43 25.77 215.68 29.59 215.66 33.41 C 211.82 33.90 208.19 29.81 204.52 32.47 C 203.08 34.54 202.25 36.96 201.30 39.29 C 199.94 33.04 201.29 26.39 201.18 20.00 C 200.40 15.89 201.64 11.79 201.21 7.65 Z" />
<path fill="#93aca5" d=" M 226.19 7.65 C 230.82 19.48 233.58 32.01 237.79 44.02 C 241.79 32.00 244.41 19.53 248.80 7.66 C 248.61 13.02 246.14 17.95 244.94 23.12 C 243.32 29.11 241.42 35.03 239.78 41.02 C 239.16 42.65 239.33 45.22 237.07 45.41 C 236.44 43.32 235.80 41.23 235.17 39.14 C 233.70 34.03 232.03 28.99 230.54 23.88 C 229.20 18.45 226.53 13.29 226.19 7.65 Z" />
<path fill="#38675a" d=" M 248.80 7.66 C 257.37 7.60 265.94 7.65 274.51 7.63 C 274.47 14.93 274.67 22.23 274.47 29.53 C 273.56 27.46 273.17 25.00 271.67 23.29 C 268.00 22.09 264.08 23.60 260.39 24.04 C 260.69 22.81 260.34 22.04 259.33 21.72 C 254.57 20.67 249.16 20.17 244.94 23.12 C 246.14 17.95 248.61 13.02 248.80 7.66 Z" />
<path fill="#2e5e51" d=" M 19.89 14.91 C 19.90 12.25 22.37 10.24 24.96 10.47 C 45.66 10.45 66.36 10.44 87.06 10.48 C 88.60 10.37 89.95 11.18 91.20 11.96 C 91.50 12.92 91.85 13.86 92.25 14.78 C 92.31 26.89 92.30 39.01 92.26 51.13 C 91.53 53.00 90.45 54.94 88.15 55.15 C 67.10 55.28 46.03 55.16 24.98 55.21 C 22.06 55.58 19.67 52.89 19.86 50.08 C 19.86 38.35 19.82 26.63 19.89 14.91 Z" />
<path fill="#ffffff" d=" M 23.58 16.95 C 23.34 14.56 25.58 12.49 27.94 12.70 C 46.29 12.65 64.65 12.70 83.01 12.67 C 84.48 12.53 85.87 12.99 87.17 13.63 C 87.50 14.14 88.14 15.17 88.46 15.69 C 88.44 27.23 88.48 38.76 88.44 50.30 C 87.48 51.81 85.98 53.06 84.07 52.84 C 65.36 52.87 46.65 52.85 27.95 52.85 C 25.67 53.16 23.43 51.18 23.61 48.87 C 23.54 38.23 23.59 27.59 23.58 16.95 Z" />
<path fill="#5dc2a5" d=" M 84.34 19.31 C 84.88 19.33 85.98 19.39 86.53 19.42 C 86.50 19.88 86.45 20.81 86.42 21.28 C 82.32 25.66 78.18 30.01 73.99 34.29 C 70.92 34.76 69.31 30.64 67.02 29.02 C 63.34 32.76 61.19 37.79 57.76 41.75 C 57.36 41.78 56.58 41.85 56.19 41.88 C 53.63 39.80 51.62 37.15 49.12 35.01 C 41.87 39.42 34.82 44.15 27.59 48.58 C 26.25 49.00 25.47 48.45 25.24 46.95 C 31.87 42.26 38.92 38.20 45.68 33.70 C 47.13 32.77 48.89 31.34 50.68 32.34 C 52.61 34.11 54.20 36.21 56.18 37.93 C 56.50 37.86 57.13 37.72 57.45 37.65 C 60.19 33.51 62.84 29.30 65.81 25.31 C 69.44 25.29 70.35 30.25 73.60 30.70 C 77.17 26.89 80.82 23.16 84.34 19.31 Z" />
<path fill="#2d5c4f" d=" M 157.51 19.47 C 160.51 18.85 164.93 18.15 166.87 21.13 C 167.89 23.84 168.31 26.74 169.28 29.48 C 169.45 35.82 169.46 42.20 169.28 48.55 C 168.20 45.87 168.13 42.69 166.56 40.30 C 162.34 39.12 156.69 38.77 154.16 43.15 C 154.21 37.87 153.73 32.60 153.85 27.31 C 154.76 24.60 155.48 21.60 157.51 19.47 Z" />
<path fill="#2e5d50" d=" M 244.94 23.12 C 249.16 20.17 254.57 20.67 259.33 21.72 C 258.20 27.57 255.83 33.64 253.79 39.39 C 251.84 40.21 250.92 37.69 249.12 37.75 C 245.63 37.19 242.27 38.66 239.78 41.02 C 241.42 35.03 243.32 29.11 244.94 23.12 Z" />
<path fill="#2f5e51" d=" M 218.94 22.67 C 222.66 20.87 226.96 22.40 230.54 23.88 C 232.03 28.99 233.70 34.03 235.17 39.14 C 233.46 37.32 231.61 35.16 228.94 34.95 C 226.26 34.40 223.71 35.59 221.28 36.54 C 220.66 35.19 220.05 33.84 219.41 32.50 C 218.69 30.72 218.46 28.75 217.47 27.08 L 217.63 26.51 C 218.02 25.21 218.36 23.89 218.94 22.67 Z" />
<path fill="#2e5d50" d=" M 260.39 24.04 C 264.08 23.60 268.00 22.09 271.67 23.29 C 273.17 25.00 273.56 27.46 274.47 29.53 C 274.66 32.82 274.49 36.13 274.54 39.43 C 273.30 38.04 272.26 36.42 270.70 35.36 C 268.32 34.50 265.76 35.02 263.34 35.34 C 262.60 36.57 261.84 37.79 261.01 38.97 C 260.74 37.44 260.40 35.93 260.23 34.40 C 260.19 30.95 260.23 27.49 260.39 24.04 Z" />
<path fill="#275648" d=" M 132.59 31.59 C 136.99 29.62 142.05 30.86 146.12 33.07 C 148.07 38.44 150.12 43.78 152.11 49.15 C 147.86 47.27 143.01 46.05 138.44 47.45 C 137.32 48.37 136.97 49.90 136.38 51.16 C 134.41 46.69 132.88 42.01 131.29 37.40 C 131.59 35.49 131.13 33.07 132.59 31.59 Z" />
<path fill="#235245" d=" M 113.49 32.42 C 115.24 31.64 117.21 31.54 119.09 31.74 C 123.51 31.89 123.42 37.51 125.18 40.48 C 125.36 46.53 125.51 52.59 125.40 58.64 C 124.22 56.79 123.09 54.92 121.84 53.12 C 118.89 52.72 114.38 51.56 112.68 54.80 C 110.15 58.58 111.73 63.37 110.38 67.50 L 109.73 66.67 C 109.59 57.34 109.80 48.01 109.66 38.68 L 110.61 37.97 C 111.57 36.12 112.11 34.02 113.49 32.42 Z" />
<path fill="#245346" d=" M 204.52 32.47 C 208.19 29.81 211.82 33.90 215.66 33.41 C 215.83 42.77 216.84 52.08 216.57 61.47 C 215.50 58.91 214.67 56.19 213.09 53.88 C 210.86 52.08 207.70 52.78 205.06 52.84 C 200.82 56.62 202.36 62.59 202.01 67.58 L 200.76 67.44 C 200.80 59.58 200.81 51.72 200.78 43.86 L 201.22 43.14 C 201.14 41.85 201.17 40.57 201.30 39.29 C 202.25 36.96 203.08 34.54 204.52 32.47 Z" />
<path fill="#245346" d=" M 219.41 32.50 C 220.05 33.84 220.66 35.19 221.28 36.54 C 223.71 35.59 226.26 34.40 228.94 34.95 C 231.61 35.16 233.46 37.32 235.17 39.14 C 235.80 41.23 236.44 43.32 237.07 45.41 C 239.33 45.22 239.16 42.65 239.78 41.02 C 242.27 38.66 245.63 37.19 249.12 37.75 C 250.92 37.69 251.84 40.21 253.79 39.39 C 253.52 41.40 252.50 43.20 252.24 45.21 C 251.33 47.23 250.55 49.47 250.28 51.73 C 250.01 51.73 249.48 51.74 249.21 51.75 C 248.89 51.66 248.25 51.49 247.93 51.40 C 247.49 50.63 247.12 49.81 246.73 49.01 C 241.16 49.13 235.57 48.80 230.01 49.16 C 228.21 49.16 227.41 51.00 226.36 52.13 L 225.76 52.92 C 225.27 50.69 224.98 48.12 223.73 46.21 C 222.69 41.53 220.85 37.06 219.41 32.50 Z" />
<path fill="#225144" d=" M 259.64 34.42 C 259.79 34.42 260.09 34.40 260.23 34.40 C 260.40 35.93 260.74 37.44 261.01 38.97 C 261.84 37.79 262.60 36.57 263.34 35.34 C 265.76 35.02 268.32 34.50 270.70 35.36 C 272.26 36.42 273.30 38.04 274.54 39.43 C 274.50 46.10 274.57 52.77 274.56 59.44 C 272.60 57.92 270.86 55.35 268.08 55.63 C 265.52 55.76 262.98 56.18 260.45 56.56 C 260.08 55.34 259.70 54.12 259.33 52.90 C 259.34 46.74 259.73 40.58 259.64 34.42 Z" />
<path fill="#225144" d=" M 154.16 43.15 C 156.69 38.77 162.34 39.12 166.56 40.30 C 168.13 42.69 168.20 45.87 169.28 48.55 C 169.47 53.83 169.45 59.14 169.28 64.43 C 167.34 60.51 168.88 55.81 167.00 51.97 C 163.18 49.38 158.22 51.28 154.54 53.35 C 154.11 49.96 154.35 46.55 154.16 43.15 Z" />
<path fill="#18473a" d=" M 138.44 47.45 C 143.01 46.05 147.86 47.27 152.11 49.15 C 152.60 50.66 153.15 52.17 153.64 53.69 C 153.87 53.60 154.32 53.43 154.54 53.35 C 158.22 51.28 163.18 49.38 167.00 51.97 C 168.88 55.81 167.34 60.51 169.28 64.43 C 169.32 65.21 169.40 66.77 169.44 67.55 C 160.37 67.67 151.31 67.58 142.24 67.59 C 140.28 62.12 138.09 56.69 136.38 51.16 C 136.97 49.90 137.32 48.37 138.44 47.45 Z" />
<path fill="#18473a" d=" M 226.36 52.13 C 227.41 51.00 228.21 49.16 230.01 49.16 C 235.57 48.80 241.16 49.13 246.73 49.01 C 247.12 49.81 247.49 50.63 247.93 51.40 C 248.25 51.49 248.89 51.66 249.21 51.75 L 249.65 52.53 C 248.23 57.47 246.09 62.26 245.20 67.34 C 240.38 67.83 235.50 67.63 230.66 67.45 C 230.69 66.24 230.37 65.17 229.70 64.24 C 229.00 60.07 226.64 56.36 226.36 52.13 Z" />
<path fill="#164538" d=" M 112.68 54.80 C 114.38 51.56 118.89 52.72 121.84 53.12 C 123.09 54.92 124.22 56.79 125.40 58.64 C 125.71 61.60 125.48 64.60 125.67 67.57 C 120.55 67.67 115.43 67.49 110.31 67.67 L 110.38 67.50 C 111.73 63.37 110.15 58.58 112.68 54.80 Z" />
<path fill="#164538" d=" M 202.01 67.58 C 202.36 62.59 200.82 56.62 205.06 52.84 C 207.70 52.78 210.86 52.08 213.09 53.88 C 214.67 56.19 215.50 58.91 216.57 61.47 C 216.78 63.50 216.65 65.55 216.72 67.59 C 211.81 67.60 206.91 67.61 202.01 67.58 Z" />
<path fill="#164537" d=" M 258.57 67.49 C 258.48 62.59 259.53 57.79 259.33 52.90 C 259.70 54.12 260.08 55.34 260.45 56.56 C 262.98 56.18 265.52 55.76 268.08 55.63 C 270.86 55.35 272.60 57.92 274.56 59.44 C 274.51 62.15 274.55 64.86 274.56 67.57 C 269.23 67.58 263.90 67.69 258.57 67.49 Z" />
<path fill="#5dc0a4" d=" M 18.03 64.49 C 14.31 64.48 14.29 58.16 18.07 58.20 C 42.73 57.94 67.40 58.12 92.06 58.10 C 93.61 58.10 95.42 58.20 96.45 59.55 C 96.76 60.77 96.51 62.02 96.50 63.26 C 95.19 64.24 93.62 64.75 91.98 64.57 C 67.33 64.49 42.67 64.65 18.03 64.49 Z" />
<path fill="#f6fcfa" d=" M 50.01 61.10 C 50.21 60.73 50.60 59.99 50.80 59.63 C 54.25 59.55 57.72 59.50 61.16 59.67 C 61.43 60.02 61.96 60.74 62.22 61.10 C 58.16 61.39 54.07 61.46 50.01 61.10 Z" />
</svg>
